# xmcd
# 
# Track frame offsets:
#     150
#     47082
#     100469
#     146662
#     190870
#     237222
#     282060
# 
# Disc length: 4273
# 
# Revision: 0
# Processed by: cddbd v1.5.2PL0 Copyright (c) Steve Scherf et al.
# Submitted via: fre:ac v1.0.17
# 
DISCID=6010af07
DTITLE=philip pullman - Bärnstenskikaren Den mörka materian 3: CD 8
DYEAR=2005
DGENRE=Audiobook
TTITLE0=0801
TTITLE1=0802
TTITLE2=0803
TTITLE3=0804
TTITLE4=0805
TTITLE5=0806
TTITLE6=0807
EXTD=
EXTT0=
EXTT1=
EXTT2=
EXTT3=
EXTT4=
EXTT5=
EXTT6=
PLAYORDER=
